<?xml version="1.0" encoding="iso-8859-1"?>
<!-- Generator: Adobe Illustrator 19.1.0, SVG Export Plug-In . SVG Version: 6.00 Build 0)  -->
<svg version="1.1" id="Capa_1" xmlns="http://www.w3.org/2000/svg" xmlns:xlink="http://www.w3.org/1999/xlink" x="0px" y="0px"
	 viewBox="0 0 64.488 64.488" style="enable-background:new 0 0 64.488 64.488;" xml:space="preserve">
<g>
	<g id="group-18svg">
		<path id="path-1_8_" d="M24.344,48.711c-6.506,0-12.622-2.532-17.222-7.131c-9.496-9.493-9.496-24.94,0-34.433
			c4.6-4.599,10.716-7.131,17.222-7.131c6.505,0,12.621,2.532,17.22,7.131c9.496,9.493,9.496,24.94,0,34.433
			C36.965,46.179,30.849,48.711,24.344,48.711z M24.344,3.015c-5.705,0-11.068,2.22-15.101,6.252
			c-8.326,8.324-8.326,21.869,0,30.193c4.033,4.032,9.396,6.252,15.101,6.252c5.704,0,11.066-2.22,15.099-6.252
			c4.033-4.033,6.255-9.394,6.255-15.096c0-5.703-2.222-11.064-6.255-15.097C35.41,5.235,30.048,3.015,24.344,3.015z M24.344,40.858
			c-4.408,0-8.551-1.716-11.667-4.832c-6.433-6.43-6.433-16.894,0-23.326c3.116-3.115,7.259-4.831,11.667-4.831
			c4.406-0.001,8.55,1.716,11.666,4.831c6.432,6.432,6.432,16.896,0,23.326C32.894,39.142,28.75,40.858,24.344,40.858z
			 M24.344,10.868c-3.607,0-6.996,1.403-9.546,3.952c-5.263,5.263-5.263,13.825,0,19.086c2.55,2.549,5.939,3.953,9.546,3.953
			c3.605,0,6.995-1.404,9.545-3.953c5.262-5.261,5.262-13.823,0-19.086C31.339,12.271,27.949,10.868,24.344,10.868z"/>
		<path id="path-2_8_" d="M61.488,64.472c-0.767,0-1.535-0.292-2.121-0.878L44.139,48.37c-1.172-1.171-1.172-3.071,0-4.241
			c1.171-1.172,3.07-1.172,4.242,0l15.228,15.224c1.172,1.17,1.172,3.07,0,4.241C63.023,64.18,62.256,64.472,61.488,64.472z"/>
		<path id="path-3_8_" d="M23.654,32.333c-0.828,0-1.5-0.672-1.5-1.5V18.837c0-0.828,0.672-1.5,1.5-1.5c0.828,0,1.5,0.672,1.5,1.5
			v11.996C25.154,31.661,24.482,32.333,23.654,32.333z"/>
		<path id="path-4_7_" d="M29.727,26.835h-12c-0.828,0-1.5-0.672-1.5-1.5c0-0.828,0.672-1.5,1.5-1.5h12c0.829,0,1.5,0.672,1.5,1.5
			C31.227,26.163,30.556,26.835,29.727,26.835z"/>
	</g>
</g>
<g>
</g>
<g>
</g>
<g>
</g>
<g>
</g>
<g>
</g>
<g>
</g>
<g>
</g>
<g>
</g>
<g>
</g>
<g>
</g>
<g>
</g>
<g>
</g>
<g>
</g>
<g>
</g>
<g>
</g>
</svg>
